{
	"asset":{
		"version":"2.0",
		"generator":"Created using the official Cinema 4D glTF Exporter 1.000x284978"
	},
	"scenes":[{
		"nodes":[0]
	}],
	"nodes":[{
		"name":"Null",
		"rotation":[0.0,
		0.0,
		0.0,
		-1.0],
		"translation":[-90.26364135742188,
		198.88357543945313,
		-11.649904251098633],
		"scale":[1.0,
		1.0,
		1.0],
		"children":[1,
		2,
		3,
		4,
		5]
	},
	{
		"name":"Cube.2",
		"mesh":0,
		"rotation":[0.0,
		0.0,
		0.0,
		-1.0],
		"translation":[-389.8695983886719,
		-32.25654983520508,
		45.41666793823242],
		"scale":[1.0,
		1.0,
		1.0]
	},
	{
		"name":"Cube.1",
		"mesh":1,
		"rotation":[0.0,
		0.0,
		0.0,
		-1.0],
		"translation":[-158.310546875,
		-66.55512237548828,
		46.98735427856445],
		"scale":[1.0,
		1.0,
		1.0]
	},
	{
		"name":"Cylinder.1",
		"mesh":2,
		"rotation":[0.0,
		-0.9961947202682495,
		0.0,
		0.08715574443340302],
		"translation":[-6.396574974060059,
		109.55207824707031,
		24.619831085205079],
		"scale":[1.0,
		1.0,
		1.0]
	},
	{
		"name":"Cylinder",
		"mesh":3,
		"rotation":[0.0,
		0.0,
		0.0,
		-1.0],
		"translation":[369.685302734375,
		55.85875701904297,
		-88.83672332763672],
		"scale":[1.0,
		1.0,
		1.0]
	},
	{
		"name":"Null",
		"rotation":[0.0,
		0.0,
		0.0,
		-1.0],
		"translation":[184.8914031982422,
		-66.59915924072266,
		-28.1871337890625],
		"scale":[1.0,
		1.0,
		1.0],
		"children":[6,
		7,
		8]
	},
	{
		"name":"Cube.3",
		"mesh":4,
		"rotation":[0.0,
		0.0,
		0.0,
		-1.0],
		"translation":[-24.25175666809082,
		328.97857666015627,
		-81.0918197631836],
		"scale":[1.0,
		1.0,
		1.0]
	},
	{
		"name":"Boole",
		"rotation":[0.0,
		0.0,
		0.0,
		-1.0],
		"translation":[-94.62776184082031,
		-132.284423828125,
		39.837039947509769],
		"scale":[1.0,
		1.0,
		1.0],
		"children":[9,
		10]
	},
	{
		"name":"Cube.1",
		"mesh":5,
		"rotation":[0.0,
		0.0,
		0.0,
		-1.0],
		"translation":[-94.62776184082031,
		0.0,
		39.837039947509769],
		"scale":[1.0,
		1.0,
		1.0]
	},
	{
		"name":"Cube.2",
		"mesh":6,
		"rotation":[0.0,
		-1.0,
		0.0,
		-6.123234262925839e-17],
		"translation":[189.25552368164063,
		132.284423828125,
		-79.67407989501953],
		"scale":[1.0,
		1.0,
		1.0]
	},
	{
		"name":"Cube.1",
		"mesh":7,
		"rotation":[0.0,
		0.0,
		0.0,
		-1.0],
		"translation":[70.35437774658203,
		485.65802001953127,
		-86.88970184326172],
		"scale":[1.0,
		1.0,
		1.0]
	}],
	"meshes":[{
		"name":"Cube.2",
		"primitives":[{
			"attributes":{
				"POSITION":1,
				"NORMAL":2,
				"TEXCOORD_0":3
			},
			"indices":0,
			"material":0
		}]
	},
	{
		"name":"Cube.1",
		"primitives":[{
			"attributes":{
				"POSITION":5,
				"NORMAL":6,
				"TEXCOORD_0":7
			},
			"indices":4,
			"material":1
		}]
	},
	{
		"name":"Cylinder.1",
		"primitives":[{
			"attributes":{
				"POSITION":9,
				"NORMAL":10,
				"TEXCOORD_0":11
			},
			"indices":8,
			"material":2
		}]
	},
	{
		"name":"Cylinder",
		"primitives":[{
			"attributes":{
				"POSITION":13,
				"NORMAL":14,
				"TEXCOORD_0":15
			},
			"indices":12,
			"material":3
		}]
	},
	{
		"name":"Cube.3",
		"primitives":[{
			"attributes":{
				"POSITION":17,
				"NORMAL":18,
				"TEXCOORD_0":19
			},
			"indices":16,
			"material":4
		}]
	},
	{
		"name":"Cube.1",
		"primitives":[{
			"attributes":{
				"POSITION":21,
				"NORMAL":22,
				"TEXCOORD_0":23
			},
			"indices":20,
			"material":5
		}]
	},
	{
		"name":"Cube.2",
		"primitives":[{
			"attributes":{
				"POSITION":25,
				"NORMAL":26,
				"TEXCOORD_0":27
			},
			"indices":24,
			"material":6
		}]
	},
	{
		"name":"Cube.1",
		"primitives":[{
			"attributes":{
				"POSITION":29,
				"NORMAL":30,
				"TEXCOORD_0":31
			},
			"indices":28,
			"material":7
		}]
	}],
	"accessors":[{
		"bufferView":0,
		"type":"SCALAR",
		"componentType":5123,
		"count":25140,
		"byteOffset":0,
		"min":[0],
		"max":[8483]
	},
	{
		"bufferView":1,
		"type":"VEC3",
		"componentType":5126,
		"count":8484,
		"byteOffset":0,
		"min":[-83.79979705810547,
		-132.4707489013672,
		-184.03280639648438],
		"max":[83.79979705810547,
		132.4707489013672,
		184.03280639648438]
	},
	{
		"bufferView":1,
		"type":"VEC3",
		"componentType":5126,
		"count":8484,
		"byteOffset":12,
		"min":[-1.0,
		-1.0,
		-1.0],
		"max":[1.0,
		1.0,
		1.0]
	},
	{
		"bufferView":1,
		"type":"VEC2",
		"componentType":5126,
		"count":8484,
		"byteOffset":24,
		"min":[0.0,
		0.0],
		"max":[1.0,
		1.0]
	},
	{
		"bufferView":2,
		"type":"SCALAR",
		"componentType":5123,
		"count":2100,
		"byteOffset":0,
		"min":[0],
		"max":[907]
	},
	{
		"bufferView":3,
		"type":"VEC3",
		"componentType":5126,
		"count":908,
		"byteOffset":0,
		"min":[-148.9808349609375,
		-100.0,
		-64.69132232666016],
		"max":[148.9808349609375,
		100.0,
		64.69132232666016]
	},
	{
		"bufferView":3,
		"type":"VEC3",
		"componentType":5126,
		"count":908,
		"byteOffset":12,
		"min":[-1.0,
		-1.0,
		-1.0],
		"max":[1.0,
		1.0,
		1.0]
	},
	{
		"bufferView":3,
		"type":"VEC2",
		"componentType":5126,
		"count":908,
		"byteOffset":24,
		"min":[0.0,
		0.0],
		"max":[1.0,
		1.0]
	},
	{
		"bufferView":4,
		"type":"SCALAR",
		"componentType":5123,
		"count":4140,
		"byteOffset":0,
		"min":[0],
		"max":[1943]
	},
	{
		"bufferView":5,
		"type":"VEC3",
		"componentType":5126,
		"count":1944,
		"byteOffset":0,
		"min":[4.695329666137695,
		-219.82997131347657,
		-38.7760124206543],
		"max":[40.0,
		219.82997131347657,
		0.0]
	},
	{
		"bufferView":5,
		"type":"VEC3",
		"componentType":5126,
		"count":1944,
		"byteOffset":12,
		"min":[-0.9877617955207825,
		-1.0,
		-0.986361026763916],
		"max":[0.9863660931587219,
		1.0,
		0.986361026763916]
	},
	{
		"bufferView":5,
		"type":"VEC2",
		"componentType":5126,
		"count":1944,
		"byteOffset":24,
		"min":[0.0,
		0.0],
		"max":[1.0,
		1.0]
	},
	{
		"bufferView":6,
		"type":"SCALAR",
		"componentType":5123,
		"count":5928,
		"byteOffset":0,
		"min":[0],
		"max":[2263]
	},
	{
		"bufferView":7,
		"type":"VEC3",
		"componentType":5126,
		"count":2264,
		"byteOffset":0,
		"min":[-39.45445251464844,
		-219.82997131347657,
		-39.863380432128909],
		"max":[40.0,
		219.82997131347657,
		39.863380432128909]
	},
	{
		"bufferView":7,
		"type":"VEC3",
		"componentType":5126,
		"count":2264,
		"byteOffset":12,
		"min":[-0.9939832091331482,
		-1.0,
		-0.9996328949928284],
		"max":[0.9994439482688904,
		1.0,
		0.9996328949928284]
	},
	{
		"bufferView":7,
		"type":"VEC2",
		"componentType":5126,
		"count":2264,
		"byteOffset":24,
		"min":[0.0,
		0.0],
		"max":[1.0,
		1.0]
	},
	{
		"bufferView":8,
		"type":"SCALAR",
		"componentType":5123,
		"count":6426,
		"byteOffset":0,
		"min":[0],
		"max":[2977]
	},
	{
		"bufferView":9,
		"type":"VEC3",
		"componentType":5126,
		"count":2978,
		"byteOffset":0,
		"min":[-35.0,
		-82.0737533569336,
		-25.0],
		"max":[35.0,
		75.0,
		25.0]
	},
	{
		"bufferView":9,
		"type":"VEC3",
		"componentType":5126,
		"count":2978,
		"byteOffset":12,
		"min":[-1.0,
		-1.0,
		-1.0],
		"max":[1.0,
		1.0,
		1.0]
	},
	{
		"bufferView":9,
		"type":"VEC2",
		"componentType":5126,
		"count":2978,
		"byteOffset":24,
		"min":[0.0,
		-0.20783710479736329],
		"max":[1.0,
		1.0]
	},
	{
		"bufferView":10,
		"type":"SCALAR",
		"componentType":5123,
		"count":8322,
		"byteOffset":0,
		"min":[0],
		"max":[2529]
	},
	{
		"bufferView":11,
		"type":"VEC3",
		"componentType":5126,
		"count":2530,
		"byteOffset":0,
		"min":[-100.0,
		-100.0,
		-100.0],
		"max":[367.1794128417969,
		432.6324768066406,
		100.0]
	},
	{
		"bufferView":11,
		"type":"VEC3",
		"componentType":5126,
		"count":2530,
		"byteOffset":12,
		"min":[-1.0,
		-1.0,
		-1.0],
		"max":[1.0,
		1.0,
		1.0]
	},
	{
		"bufferView":11,
		"type":"VEC2",
		"componentType":5126,
		"count":2530,
		"byteOffset":24,
		"min":[0.0,
		0.0],
		"max":[1.3742494583129883,
		1.0]
	},
	{
		"bufferView":12,
		"type":"SCALAR",
		"componentType":5123,
		"count":8616,
		"byteOffset":0,
		"min":[0],
		"max":[2507]
	},
	{
		"bufferView":13,
		"type":"VEC3",
		"componentType":5126,
		"count":2508,
		"byteOffset":0,
		"min":[-100.0,
		-100.16294860839844,
		-100.0],
		"max":[367.1794128417969,
		367.39459228515627,
		100.0]
	},
	{
		"bufferView":13,
		"type":"VEC3",
		"componentType":5126,
		"count":2508,
		"byteOffset":12,
		"min":[-1.0,
		-1.0,
		-1.0],
		"max":[1.0,
		1.0,
		1.0]
	},
	{
		"bufferView":13,
		"type":"VEC2",
		"componentType":5126,
		"count":2508,
		"byteOffset":24,
		"min":[0.0,
		0.0],
		"max":[1.3742494583129883,
		1.0]
	},
	{
		"bufferView":14,
		"type":"SCALAR",
		"componentType":5123,
		"count":132,
		"byteOffset":0,
		"min":[0],
		"max":[55]
	},
	{
		"bufferView":15,
		"type":"VEC3",
		"componentType":5126,
		"count":56,
		"byteOffset":0,
		"min":[-35.04999923706055,
		-99.55000305175781,
		-92.78437042236328],
		"max":[35.04999923706055,
		14.02098274230957,
		100.0]
	},
	{
		"bufferView":15,
		"type":"VEC3",
		"componentType":5126,
		"count":56,
		"byteOffset":12,
		"min":[-1.0,
		0.0,
		-1.0],
		"max":[1.0,
		1.0,
		0.0]
	},
	{
		"bufferView":15,
		"type":"VEC2",
		"componentType":5126,
		"count":56,
		"byteOffset":24,
		"min":[0.0,
		0.0],
		"max":[1.0,
		1.0]
	}],
	"bufferViews":[{
		"buffer":0,
		"byteOffset":0,
		"byteLength":50280,
		"target":34963
	},
	{
		"buffer":0,
		"byteOffset":50280,
		"byteLength":271488,
		"target":34962,
		"byteStride":32
	},
	{
		"buffer":1,
		"byteOffset":0,
		"byteLength":4200,
		"target":34963
	},
	{
		"buffer":1,
		"byteOffset":4200,
		"byteLength":29056,
		"target":34962,
		"byteStride":32
	},
	{
		"buffer":2,
		"byteOffset":0,
		"byteLength":8280,
		"target":34963
	},
	{
		"buffer":2,
		"byteOffset":8280,
		"byteLength":62208,
		"target":34962,
		"byteStride":32
	},
	{
		"buffer":3,
		"byteOffset":0,
		"byteLength":11856,
		"target":34963
	},
	{
		"buffer":3,
		"byteOffset":11856,
		"byteLength":72448,
		"target":34962,
		"byteStride":32
	},
	{
		"buffer":4,
		"byteOffset":0,
		"byteLength":12852,
		"target":34963
	},
	{
		"buffer":4,
		"byteOffset":12852,
		"byteLength":95296,
		"target":34962,
		"byteStride":32
	},
	{
		"buffer":5,
		"byteOffset":0,
		"byteLength":16644,
		"target":34963
	},
	{
		"buffer":5,
		"byteOffset":16644,
		"byteLength":80960,
		"target":34962,
		"byteStride":32
	},
	{
		"buffer":6,
		"byteOffset":0,
		"byteLength":17232,
		"target":34963
	},
	{
		"buffer":6,
		"byteOffset":17232,
		"byteLength":80256,
		"target":34962,
		"byteStride":32
	},
	{
		"buffer":7,
		"byteOffset":0,
		"byteLength":264,
		"target":34963
	},
	{
		"buffer":7,
		"byteOffset":264,
		"byteLength":1792,
		"target":34962,
		"byteStride":32
	}],
	"buffers":[{
		"uri":"data:application/octet-stream;base64,",
		"byteLength":321768
	},
	{
		"uri":"data:application/octet-stream;base64,",
		"byteLength":33256
	},
	{
		"uri":"data:application/octet-stream;base64,",
		"byteLength":70488
	},
	{
		"uri":"data:application/octet-stream;base64,",
		"byteLength":84304
	},
	{
		"uri":"data:application/octet-stream;base64,",
		"byteLength":108148
	},
	{
		"uri":"data:application/octet-stream;base64,",
		"byteLength":97604
	},
	{
		"uri":"data:application/octet-stream;base64,",
		"byteLength":97488
	},
	{
		"uri":"data:application/octet-stream;base64,",
		"byteLength":2056
	}],
	"materials":[{
		"pbrMetallicRoughness":{
			"baseColorFactor":[1.0,
			1.0,
			1.0,
			1.0],
			"metallicFactor":1.0,
			"roughnessFactor":1.0
		},
		"emissiveFactor":[0.0,
		0.0,
		0.0],
		"alphaMode":"OPAQUE",
		"name":"",
		"doubleSided":false
	},
	{
		"pbrMetallicRoughness":{
			"baseColorFactor":[1.0,
			1.0,
			1.0,
			1.0],
			"metallicFactor":1.0,
			"roughnessFactor":1.0
		},
		"emissiveFactor":[0.0,
		0.0,
		0.0],
		"alphaMode":"OPAQUE",
		"name":"",
		"doubleSided":false
	},
	{
		"pbrMetallicRoughness":{
			"baseColorFactor":[1.0,
			1.0,
			1.0,
			1.0],
			"metallicFactor":1.0,
			"roughnessFactor":1.0
		},
		"emissiveFactor":[0.0,
		0.0,
		0.0],
		"alphaMode":"OPAQUE",
		"name":"",
		"doubleSided":false
	},
	{
		"pbrMetallicRoughness":{
			"baseColorFactor":[1.0,
			1.0,
			1.0,
			1.0],
			"metallicFactor":1.0,
			"roughnessFactor":1.0
		},
		"emissiveFactor":[0.0,
		0.0,
		0.0],
		"alphaMode":"OPAQUE",
		"name":"",
		"doubleSided":false
	},
	{
		"pbrMetallicRoughness":{
			"baseColorFactor":[1.0,
			1.0,
			1.0,
			1.0],
			"metallicFactor":1.0,
			"roughnessFactor":1.0
		},
		"emissiveFactor":[0.0,
		0.0,
		0.0],
		"alphaMode":"OPAQUE",
		"name":"",
		"doubleSided":false
	},
	{
		"pbrMetallicRoughness":{
			"baseColorFactor":[1.0,
			1.0,
			1.0,
			1.0],
			"metallicFactor":1.0,
			"roughnessFactor":1.0
		},
		"emissiveFactor":[0.0,
		0.0,
		0.0],
		"alphaMode":"OPAQUE",
		"name":"",
		"doubleSided":false
	},
	{
		"pbrMetallicRoughness":{
			"baseColorFactor":[1.0,
			1.0,
			1.0,
			1.0],
			"metallicFactor":1.0,
			"roughnessFactor":1.0
		},
		"emissiveFactor":[0.0,
		0.0,
		0.0],
		"alphaMode":"OPAQUE",
		"name":"",
		"doubleSided":false
	},
	{
		"pbrMetallicRoughness":{
			"baseColorFactor":[1.0,
			1.0,
			1.0,
			1.0],
			"metallicFactor":1.0,
			"roughnessFactor":1.0
		},
		"emissiveFactor":[0.0,
		0.0,
		0.0],
		"alphaMode":"OPAQUE",
		"name":"",
		"doubleSided":false
	}]
}